<svg width="119" height="72" viewBox="0 0 119 72" fill="none" xmlns="http://www.w3.org/2000/svg">
<path d="M0.968 1.4H8.792C11.512 1.4 13.496 2.04 14.744 3.32C15.992 4.568 16.616 6.504 16.616 9.128V11.192C16.616 14.68 15.464 16.888 13.16 17.816V17.912C14.44 18.296 15.336 19.08 15.848 20.264C16.392 21.448 16.664 23.032 16.664 25.016V30.92C16.664 31.88 16.696 32.664 16.76 33.272C16.824 33.848 16.984 34.424 17.24 35H11.864C11.672 34.456 11.544 33.944 11.48 33.464C11.416 32.984 11.384 32.12 11.384 30.872V24.728C11.384 23.192 11.128 22.12 10.616 21.512C10.136 20.904 9.288 20.6 8.072 20.6H6.248V35H0.968V1.4ZM8.168 15.8C9.224 15.8 10.008 15.528 10.52 14.984C11.064 14.44 11.336 13.528 11.336 12.248V9.656C11.336 8.44 11.112 7.56 10.664 7.016C10.248 6.472 9.576 6.2 8.648 6.2H6.248V15.8H8.168ZM27.9594 35.48C25.3674 35.48 23.3834 34.744 22.0074 33.272C20.6314 31.8 19.9434 29.72 19.9434 27.032V9.368C19.9434 6.68 20.6314 4.6 22.0074 3.128C23.3834 1.656 25.3674 0.919998 27.9594 0.919998C30.5514 0.919998 32.5354 1.656 33.9114 3.128C35.2874 4.6 35.9754 6.68 35.9754 9.368V27.032C35.9754 29.72 35.2874 31.8 33.9114 33.272C32.5354 34.744 30.5514 35.48 27.9594 35.48ZM27.9594 30.68C29.7834 30.68 30.6954 29.576 30.6954 27.368V9.032C30.6954 6.824 29.7834 5.72 27.9594 5.72C26.1354 5.72 25.2234 6.824 25.2234 9.032V27.368C25.2234 29.576 26.1354 30.68 27.9594 30.68ZM39.5461 1.4H46.1701L51.3061 21.512H51.4021V1.4H56.1061V35H50.6821L44.3461 10.472H44.2501V35H39.5461V1.4ZM64.1105 1.4H71.2625L76.7345 35H71.4545L70.4945 28.328V28.424H64.4945L63.5345 35H58.6385L64.1105 1.4ZM69.8705 23.864L67.5185 7.256H67.4225L65.1185 23.864H69.8705ZM79.2961 1.4H85.9201L91.0561 21.512H91.1521V1.4H95.8561V35H90.4321L84.0961 10.472H84.0001V35H79.2961V1.4Z" fill="#00B0FF"/>
<path d="M8.408 71.48C5.88 71.48 3.944 70.76 2.6 69.32C1.288 67.88 0.632 65.848 0.632 63.224V45.176C0.632 42.552 1.288 40.52 2.6 39.08C3.944 37.64 5.88 36.92 8.408 36.92C10.936 36.92 12.856 37.64 14.168 39.08C15.512 40.52 16.184 42.552 16.184 45.176V48.728H11.192V44.84C11.192 42.76 10.312 41.72 8.552 41.72C6.792 41.72 5.912 42.76 5.912 44.84V63.608C5.912 65.656 6.792 66.68 8.552 66.68C10.312 66.68 11.192 65.656 11.192 63.608V58.472H16.184V63.224C16.184 65.848 15.512 67.88 14.168 69.32C12.856 70.76 10.936 71.48 8.408 71.48ZM23.423 37.4H30.575L36.047 71H30.767L29.807 64.328V64.424H23.807L22.847 71H17.951L23.423 37.4ZM29.183 59.864L26.831 43.256H26.735L24.431 59.864H29.183ZM45.332 71.48C42.772 71.48 40.836 70.76 39.524 69.32C38.212 67.848 37.556 65.752 37.556 63.032V61.112H42.548V63.416C42.548 65.592 43.46 66.68 45.284 66.68C46.18 66.68 46.852 66.424 47.3 65.912C47.78 65.368 48.02 64.504 48.02 63.32C48.02 61.912 47.7 60.68 47.06 59.624C46.42 58.536 45.236 57.24 43.508 55.736C41.332 53.816 39.812 52.088 38.948 50.552C38.084 48.984 37.652 47.224 37.652 45.272C37.652 42.616 38.324 40.568 39.668 39.128C41.012 37.656 42.964 36.92 45.524 36.92C48.052 36.92 49.956 37.656 51.236 39.128C52.548 40.568 53.204 42.648 53.204 45.368V46.76H48.212V45.032C48.212 43.88 47.988 43.048 47.54 42.536C47.092 41.992 46.436 41.72 45.572 41.72C43.812 41.72 42.932 42.792 42.932 44.936C42.932 46.152 43.252 47.288 43.892 48.344C44.564 49.4 45.764 50.68 47.492 52.184C49.7 54.104 51.22 55.848 52.052 57.416C52.884 58.984 53.3 60.824 53.3 62.936C53.3 65.688 52.612 67.8 51.236 69.272C49.892 70.744 47.924 71.48 45.332 71.48ZM63.1914 71.48C60.6314 71.48 58.6954 70.76 57.3834 69.32C56.0714 67.848 55.4154 65.752 55.4154 63.032V61.112H60.4074V63.416C60.4074 65.592 61.3194 66.68 63.1434 66.68C64.0394 66.68 64.7114 66.424 65.1594 65.912C65.6394 65.368 65.8794 64.504 65.8794 63.32C65.8794 61.912 65.5594 60.68 64.9194 59.624C64.2794 58.536 63.0954 57.24 61.3674 55.736C59.1914 53.816 57.6714 52.088 56.8074 50.552C55.9434 48.984 55.5114 47.224 55.5114 45.272C55.5114 42.616 56.1834 40.568 57.5274 39.128C58.8714 37.656 60.8234 36.92 63.3834 36.92C65.9114 36.92 67.8154 37.656 69.0954 39.128C70.4074 40.568 71.0634 42.648 71.0634 45.368V46.76H66.0714V45.032C66.0714 43.88 65.8474 43.048 65.3994 42.536C64.9514 41.992 64.2954 41.72 63.4314 41.72C61.6714 41.72 60.7914 42.792 60.7914 44.936C60.7914 46.152 61.1114 47.288 61.7514 48.344C62.4234 49.4 63.6234 50.68 65.3514 52.184C67.5594 54.104 69.0794 55.848 69.9114 57.416C70.7434 58.984 71.1594 60.824 71.1594 62.936C71.1594 65.688 70.4714 67.8 69.0954 69.272C67.7514 70.744 65.7834 71.48 63.1914 71.48ZM74.1868 37.4H79.4668V71H74.1868V37.4ZM83.4211 37.4H91.4851C94.1091 37.4 96.0771 38.104 97.3891 39.512C98.7011 40.92 99.3571 42.984 99.3571 45.704V62.696C99.3571 65.416 98.7011 67.48 97.3891 68.888C96.0771 70.296 94.1091 71 91.4851 71H83.4211V37.4ZM91.3891 66.2C92.2531 66.2 92.9091 65.944 93.3571 65.432C93.8371 64.92 94.0771 64.088 94.0771 62.936V45.464C94.0771 44.312 93.8371 43.48 93.3571 42.968C92.9091 42.456 92.2531 42.2 91.3891 42.2H88.7011V66.2H91.3891ZM106.925 56.696L100.541 37.4H106.157L109.757 49.736H109.853L113.453 37.4H118.589L112.205 56.696V71H106.925V56.696Z" fill="#F57C00"/>
</svg>
