<svg width="36" height="36" viewBox="0 0 36 36" fill="none" xmlns="http://www.w3.org/2000/svg">
<path d="M0.600813 1.4H8.42481C11.1448 1.4 13.1288 2.04 14.3768 3.32C15.6248 4.568 16.2488 6.504 16.2488 9.128V11.192C16.2488 14.68 15.0968 16.888 12.7928 17.816V17.912C14.0728 18.296 14.9688 19.08 15.4808 20.264C16.0248 21.448 16.2968 23.032 16.2968 25.016V30.92C16.2968 31.88 16.3288 32.664 16.3928 33.272C16.4568 33.848 16.6168 34.424 16.8728 35H11.4968C11.3048 34.456 11.1768 33.944 11.1128 33.464C11.0488 32.984 11.0168 32.12 11.0168 30.872V24.728C11.0168 23.192 10.7608 22.12 10.2488 21.512C9.76881 20.904 8.92081 20.6 7.70481 20.6H5.88081V35H0.600813V1.4ZM7.80081 15.8C8.85681 15.8 9.64081 15.528 10.1528 14.984C10.6968 14.44 10.9688 13.528 10.9688 12.248V9.656C10.9688 8.44 10.7448 7.56 10.2968 7.016C9.88081 6.472 9.20881 6.2 8.28081 6.2H5.88081V15.8H7.80081Z" fill="#00B0FF"/>
<path d="M27.4002 35.48C24.8722 35.48 22.9362 34.76 21.5922 33.32C20.2802 31.88 19.6242 29.848 19.6242 27.224V9.176C19.6242 6.552 20.2802 4.52 21.5922 3.08C22.9362 1.64 24.8722 0.919998 27.4002 0.919998C29.9282 0.919998 31.8482 1.64 33.1602 3.08C34.5042 4.52 35.1762 6.552 35.1762 9.176V12.728H30.1842V8.84C30.1842 6.76 29.3042 5.72 27.5442 5.72C25.7842 5.72 24.9042 6.76 24.9042 8.84V27.608C24.9042 29.656 25.7842 30.68 27.5442 30.68C29.3042 30.68 30.1842 29.656 30.1842 27.608V22.472H35.1762V27.224C35.1762 29.848 34.5042 31.88 33.1602 33.32C31.8482 34.76 29.9282 35.48 27.4002 35.48Z" fill="#F57C00"/>
</svg>
