<svg width="1460" height="411" viewBox="0 0 1460 411" fill="none" xmlns="http://www.w3.org/2000/svg" preserveAspectRatio="none">
<path fill-rule="evenodd" clip-rule="evenodd" d="M1460 132.5C1458.98 113.641 1148.52 -157 744.719 134.141C402.182 381.109 164.715 314.484 -1 135.32V173.039C164.715 352.203 402.182 418.828 744.719 171.86C1148.52 -119.282 1458.98 151.36 1460 170.219V132.5Z" fill="#00B0FF"/>
<path fill-rule="evenodd" clip-rule="evenodd" d="M1460 182.006C1458.98 163.147 1148.52 -107.495 744.719 183.647C402.182 430.615 164.715 363.99 -1 184.826V220.187C164.715 399.351 402.182 465.976 744.719 219.008C1148.52 -72.1333 1458.98 198.508 1460 217.367V182.006Z" fill="#F57C00"/>
<path fill-rule="evenodd" clip-rule="evenodd" d="M1460.69 231.512C1459.67 212.652 1149.21 -57.9888 745.408 233.153C402.872 480.121 165.405 413.496 -0.310547 234.332V411H1460.69V231.512Z" fill="#2B2B2B"/>
</svg>
