<svg width="87" height="98" viewBox="0 0 87 98" fill="none" xmlns="http://www.w3.org/2000/svg">
<path d="M86.2002 68.2V23.2L47.2002 0.699978V18L62.5002 26.8C63.1002 27.1 63.1002 28 62.5002 28.3L44.3002 38.8C43.8002 39.1 43.1002 39.1 42.6002 38.8L24.4002 28.2C23.8002 27.9 23.8002 27 24.4002 26.7L39.7002 17.9V0.599976L0.700195 23.1V68.2V68V68.2L15.7002 59.6V41.9C15.7002 41.3 16.4002 40.8 17.0002 41.2L35.2002 51.7C35.7002 52 36.1002 52.6 36.1002 53.2V74.2C36.1002 74.8 35.4002 75.3 34.8002 74.9L19.5002 66.1L4.50019 74.7L43.5002 97.2L82.5002 74.7L67.5002 66.1L52.2002 74.9C51.7002 75.2 50.9002 74.8 50.9002 74.2V53.2C50.9002 52.6 51.2002 52 51.8002 51.7L70.0002 41.2C70.5002 40.9 71.3002 41.3 71.3002 41.9V59.6L86.2002 68.2Z" fill="#4C4C4C"/>
<path d="M43.4001 97.3L82.4001 74.8L67.4001 66.2L52.1001 75C51.6001 75.3 50.8001 74.9 50.8001 74.3V53.3C50.8001 52.7 51.1001 52.1 51.7001 51.8L69.9001 41.3C70.4001 41 71.2001 41.4 71.2001 42V59.7L86.2001 68.3V23.2L43.4001 47.9V97.3Z" fill="black"/>
<path d="M47.1002 0.599976V17.9L62.4002 26.7C63.0002 27 63.0002 27.9 62.4002 28.2L44.2002 38.7C43.7002 39 43.0002 39 42.5002 38.7L24.4002 28.2C23.8002 27.9 23.8002 27 24.4002 26.7L39.7002 17.9V0.599976L0.700195 23.1L43.5002 47.8L86.3002 23.1L47.1002 0.599976Z" fill="#808080"/>
<path d="M34.6001 74.9L19.3001 66.1L4.3001 74.7L43.3001 97.2V47.8L0.600098 23.2V68.3V68.1V68.3L15.6001 59.7V42C15.6001 41.4 16.3001 40.9 16.9001 41.3L35.1001 51.8C35.6001 52.1 36.0001 52.7 36.0001 53.3V74.3C35.9001 74.8 35.2001 75.2 34.6001 74.9Z" fill="#4C4C4C"/>
</svg>
